# xmcd
# Copyright (C) 1995-1998 Ti Kan
#
# Track frame offsets:
#       150
#       12904
#       28389
#       39800
#       57226
#       71323
#       83052
#       97080
#       113538
#       128094
#       139902
#       156089
#
# Disc length: 2218 seconds
#
# Revision: 0
# Processed by: cddbd v1.5.2PL0 Copyright (c) Steve Scherf et al.
# Submitted via: CD-Transfer v1.0
#
DISCID=9508a80c
DTITLE=Franjy - 
DYEAR=08
DGENRE=
TTITLE0=Madl Komm Und Tanz Mit Mir
TTITLE1=Sternenzähler
TTITLE2=Die Sterne Über Griechenland
TTITLE3=Zum Verlieben
TTITLE4=Babe Ohne Dich
TTITLE5=What´s Up Polka
TTITLE6=Alm Wenn I Di Seh
TTITLE7=A Leben Lang Nur Sommer
TTITLE8=Nur Der Ring An Deiner Hand
TTITLE9=Oh Sandy
TTITLE10=Traumland Österreich
TTITLE11=An Sommer Lang Mit Dir
EXTD=
EXTT0=
EXTT1=
EXTT2=
EXTT3=
EXTT4=
EXTT5=
EXTT6=
EXTT7=
EXTT8=
EXTT9=
EXTT10=
EXTT11=
PLAYORDER=
